HIERARCHY
ROOT Hips
{
    OFFSET 0.0 0.0 0.0
    CHANNELS 6 Xposition Yposition Zposition Zrotation Xrotation Yrotation
    JOINT LHipJoint
    {
        OFFSET 0.1 0.0 0.0
        CHANNELS 3 Zrotation Xrotation Yrotation
        JOINT LeftHip
        {
            OFFSET 0.10055597126483917 0.0 0.0
            CHANNELS 3 Zrotation Xrotation Yrotation
            JOINT LeftKnee
            {
                OFFSET 0.0 0.0 -0.48891836404800415
                CHANNELS 3 Zrotation Xrotation Yrotation
                JOINT LeftAnkle
                {
                    OFFSET 0.0 0.0 -0.48738282918930054
                    CHANNELS 3 Zrotation Xrotation Yrotation
                    End Site
                    {
                        OFFSET 0.0 -0.1 0.0
                    }
                }
            }
        }
    }
    JOINT lowerback
    {
        OFFSET 0.0 0.0 0.1
        CHANNELS 3 Zrotation Xrotation Yrotation
        JOINT Chest
        {
            OFFSET 0.0 0.0 0.22510935366153717
            CHANNELS 3 Zrotation Xrotation Yrotation
            JOINT Chest2
            {
                OFFSET 0.0 0.0 0.23158642649650574
                CHANNELS 3 Zrotation Xrotation Yrotation
                JOINT LeftCollar
                {
                    OFFSET 0.1 0.0 0.0
                    CHANNELS 3 Zrotation Xrotation Yrotation
                    JOINT LeftShoulder
                    {
                        OFFSET 0.12451477348804474 0.0 0.0
                        CHANNELS 3 Zrotation Xrotation Yrotation
                        JOINT LeftElbow
                        {
                            OFFSET 0.25232741236686707 0.0 0.0
                            CHANNELS 3 Zrotation Xrotation Yrotation
                            JOINT LeftWrist
                            {
                                OFFSET 0.25094789266586304 0.0 0.0
                                CHANNELS 3 Zrotation Xrotation Yrotation
                                End Site
                                {
                                    OFFSET 0.1 0.0 0.0
                                }
                            }
                        }
                    }
                }
                JOINT Neck
                {
                    OFFSET 0.0 0.0 0.1
                    CHANNELS 3 Zrotation Xrotation Yrotation
                    JOINT Head
                    {
                        OFFSET 0.0 0.0 0.12410868704319
                        CHANNELS 3 Zrotation Xrotation Yrotation
                        End Site
                        {
                            OFFSET 0.0 0.0 0.12724411487579346
                        }
                    }
                }
                JOINT RightCollar
                {
                    OFFSET -0.1 0.0 0.0
                    CHANNELS 3 Zrotation Xrotation Yrotation
                    JOINT RightShoulder
                    {
                        OFFSET -0.12451477348804474 0.0 0.0
                        CHANNELS 3 Zrotation Xrotation Yrotation
                        JOINT RightElbow
                        {
                            OFFSET -0.25232741236686707 0.0 0.0
                            CHANNELS 3 Zrotation Xrotation Yrotation
                            JOINT RightWrist
                            {
                                OFFSET -0.25094789266586304 0.0 0.0
                                CHANNELS 3 Zrotation Xrotation Yrotation
                                End Site
                                {
                                    OFFSET -0.1 0.0 0.0
                                }
                            }
                        }
                    }
                }
            }
        }
    }
    JOINT RHipJoint
    {
        OFFSET -0.1 0.0 0.0
        CHANNELS 3 Zrotation Xrotation Yrotation
        JOINT RightHip
        {
            OFFSET -0.10055597126483917 0.0 0.0
            CHANNELS 3 Zrotation Xrotation Yrotation
            JOINT RightKnee
            {
                OFFSET 0.0 0.0 -0.48891836404800415
                CHANNELS 3 Zrotation Xrotation Yrotation
                JOINT RightAnkle
                {
                    OFFSET 0.0 0.0 -0.48738282918930054
                    CHANNELS 3 Zrotation Xrotation Yrotation
                    End Site
                    {
                        OFFSET 0.0 -0.1 0.0
                    }
                }
            }
        }
    }
}
MOTION
Frames: 9
Frame Time: 0.03333333333333333
1.8094677216140553e-05 1.2986348867416382 -3.190796996932477e-05 -140.882943532678 36.28769089849222 -6.17088152089016 0.0 0.0 7.951386703658791e-16 7.7804470658930205 19.92835328353258 -36.548321403084884 -7.621738562874284 26.304688497075126 19.466079625390012 3.1805546814635176e-15 6.361109362927035e-15 -2.584200678689108e-15 0.0 0.0 7.951386703658791e-16 6.510295749082246 17.04017773442852 2.0976118593526683 19.22638577298365 -3.0676562487604924e-06 6.888963052050698e-07 2.2069531490250793e-31 6.3611093629270335e-15 -3.975693351829396e-15 -139.8681541224598 -52.86084050023287 13.090286435816807 -162.6330387824178 -5.289884879111264e-07 2.7417949643290766e-06 0.0 0.0 -1.7890620083232284e-15 2.2069531490250793e-31 6.3611093629270335e-15 -3.975693351829396e-15 -57.99625614275124 -29.359893598725783 -122.04569012244744 2.2069531490250793e-31 6.3611093629270335e-15 -3.975693351829396e-15 175.41746208617488 46.089983137079706 170.36007781548943 146.603794644275 -1.7199885403147066e-06 -3.725455530303122e-07 3.0811623476677818e-15 4.275971726236091e-32 1.5902773407317584e-15 0.0 0.0 7.951386703658791e-16 11.419336067246018 28.255598153229577 -33.414196122716184 -3.007207855397285 16.442177077148266 -11.535280060866391 -1.590277340731758e-15 -6.361109362927032e-15 -1.590277340731758e-15
2.2058520698919892e-05 1.2986303567886353 -3.1732648494653404e-05 -140.1947445424781 40.79693170203667 -4.154769169935077 -6.3611093629270335e-15 8.827812596100317e-32 -1.5902773407317584e-15 7.189002462681688 18.990327632494196 -37.463921040822775 -7.084807868698042 22.389313068993214 10.572714157544214 -3.1805546814635164e-15 -3.310429723537619e-32 1.1927080055488186e-15 -6.3611093629270335e-15 8.827812596100317e-32 -1.5902773407317584e-15 2.7980938140495324 7.7337925608586024 -10.39370407196433 28.411923469156108 1.5536538428594103e-06 -2.0092024999670965e-06 0.0 0.0 -1.5902773407317584e-15 -151.70633615031102 -69.76664873585787 10.42850226351219 -113.8301818979302 -1.0009928083854374e-07 4.058454267293849e-07 -7.951386703658792e-16 1.1034765745125397e-32 -1.5902773407317584e-15 0.0 0.0 -1.5902773407317584e-15 -42.96235091885106 -34.28924891863784 -106.26762411687986 0.0 0.0 -1.5902773407317584e-15 171.53438490855902 47.85287759058173 165.0652122068125 138.97603550076013 -3.610206522124051e-07 4.498822906352735e-07 -8.448348372637467e-16 0.0 0.0 -6.3611093629270335e-15 8.827812596100317e-32 -1.5902773407317584e-15 11.655904450471688 29.427851702225766 -29.503698613471474 -1.3508776753822753 11.747400846527068 -24.08408740868642 0.0 0.0 0.0
3.350123733980581e-07 1.2987080812454224 -8.326432725880295e-05 97.95174720529205 -3.0858777119650345 35.566805389112055 8.827812596100317e-32 3.1805546814635168e-15 -3.1805546814635168e-15 -3.364062146203053 1.8168084400613593 69.75656087569794 -1.0147973114725795 -7.526345046246811 -21.39420423697234 -6.3611093629270335e-15 -6.3611093629270335e-15 -3.531125038440127e-31 8.827812596100317e-32 3.1805546814635168e-15 -3.1805546814635168e-15 -18.957681910278723 9.867564843965178 11.260455715126044 178.5320976154451 9.247251712033729e-07 1.2150887836862041e-06 -8.827812596100317e-32 3.1805546814635168e-15 3.1805546814635168e-15 138.6190668931453 48.792952889447115 59.32634668857276 -94.90831720713248 5.462505605803358e-07 -3.0440147736042484e-06 -1.7655625192200634e-31 6.3611093629270335e-15 3.1805546814635168e-15 -8.827812596100317e-32 3.1805546814635168e-15 3.1805546814635168e-15 -18.847858052034656 -34.241000465192315 -122.82863649979949 -8.827812596100317e-32 3.1805546814635168e-15 3.1805546814635168e-15 125.47145573484066 -21.567516763635524 82.3911443480089 110.45323413266378 2.3654331451947592e-06 -6.5169742509763656e-06 0.0 0.0 -7.951386703658792e-15 8.827812596100317e-32 3.1805546814635168e-15 -3.1805546814635168e-15 16.60076340048081 -8.813754858534658 18.63838896262693 -23.68625419056622 22.406043519747925 32.151158939475884 0.0 0.0 0.0
2.3334152501774952e-05 1.2986799478530884 -6.658323400188237e-05 82.8566942662853 -8.983032510523723 49.99496313427042 -6.361109362927032e-15 3.180554681463516e-15 1.7655625192200634e-31 5.870911221915912 -7.7125311805076135 49.97582965008798 -1.322031585611958 -5.985176426312057 -28.61743436571796 -1.7655625192200634e-31 -3.1805546814635164e-15 -6.361109362927033e-15 -6.361109362927032e-15 3.180554681463516e-15 1.7655625192200634e-31 -14.634890261040196 18.600692415614596 7.276611590494198 -156.3219075141165 -9.622600391438945e-08 -1.1523050530230136e-06 0.0 -3.1805546814635168e-15 0.0 -135.12805108430712 9.90324029536508 112.28602410440126 -147.03831470251325 -2.7664981037173235e-06 -1.8952671002031718e-06 6.3611093629270335e-15 -4.770832022195275e-15 -3.1805546814635164e-15 0.0 -3.1805546814635168e-15 0.0 9.145751822003714 -75.74726403969292 -165.121533881538 0.0 -3.1805546814635168e-15 0.0 46.66441719373654 -0.3377638641739508 -141.76237700488713 50.27585022036062 2.0610454007227603e-06 7.183432924905573e-07 -3.975693351829396e-15 0.0 0.0 -6.361109362927032e-15 3.180554681463516e-15 1.7655625192200634e-31 15.637054221073422 -19.904803994997312 -0.5572373182366458 -17.720782010367028 19.97685917932798 14.942069890739395 1.7655625192200634e-31 -6.3611093629270335e-15 3.1805546814635168e-15
1.0910058335866779e-05 1.2984994649887085 -1.4178956917021424e-05 171.1105351043328 41.965303589607146 27.964380813556012 1.987846675914698e-16 5.517382872562698e-33 3.1805546814635168e-15 0.8751864246366036 31.696690045522825 -12.595885229602938 0.2082436657271876 -1.0696834325889204 12.594390646062836 7.951386703658792e-16 -6.3611093629270335e-15 4.4139062980501586e-32 1.987846675914698e-16 5.517382872562698e-33 3.1805546814635168e-15 0.19714689143768227 8.159721479387741 -11.909216013585729 13.936252512150483 -1.8906327259044728e-06 1.4517182187218115e-07 0.0 6.3611093629270335e-15 0.0 -108.67309482870893 19.686323368275303 93.85133132972892 -50.905383617492774 -1.934978345429131e-06 3.5796732167619645e-07 -6.957463365701443e-15 -1.9878466759146985e-16 7.951386703658792e-16 0.0 6.3611093629270335e-15 0.0 19.914636085015506 10.590148151752901 -19.927432124084092 0.0 6.3611093629270335e-15 0.0 125.21097805413403 12.586717384249177 -109.44718030870382 41.425713264611865 -1.7531173635732924e-06 1.3671234446340217e-06 -1.987846675914698e-15 -3.1805546814635168e-15 -5.517382872562698e-32 1.987846675914698e-16 5.517382872562698e-33 3.1805546814635168e-15 0.638455256054895 25.926961520618825 -6.301734013758354 -0.1317055288553416 1.5879770391848351 -3.801497121272204 2.385416011097637e-15 -3.310429723537619e-32 -1.5902773407317582e-15
2.9922652174718678e-05 1.2984944581985474 -1.5055702533572912e-06 -130.29124116623728 52.215687512682514 -24.038915148567643 3.1805546814635168e-15 -6.3611093629270335e-15 3.975693351829398e-16 1.7140025478316334 15.713666009586346 -26.024887816229423 -1.5336509434402439 4.266140345676008 20.60008577840029 0.0 0.0 -4.174478019420866e-15 3.1805546814635168e-15 -6.3611093629270335e-15 3.975693351829398e-16 -0.3945916776361647 -3.6785213390293725 -8.576593516203895 7.45687901633837 -5.20043646061296e-07 1.6696783556442975e-07 0.0 0.0 0.0 -84.52345520500336 37.76164067616227 103.88294595444836 -51.30226369468875 1.0843794882885114e-06 3.473906951743303e-06 7.951386703658792e-16 0.0 0.0 0.0 0.0 0.0 97.61637747178982 -7.103156517311281 32.39929705234106 0.0 0.0 0.0 110.95571982578277 6.691121987933412 -116.26456308752154 62.13991990183982 3.8843612595400815e-06 3.134920298900757e-06 -7.951386703658792e-16 4.4139062980501586e-32 -6.3611093629270335e-15 3.1805546814635168e-15 -6.3611093629270335e-15 3.975693351829398e-16 2.714065886725184 23.666998416209434 -30.399244112976902 5.637810703824918 -12.642284742513679 5.940877639439584 0.0 0.0 3.1805546814635168e-15
3.7626705307047814e-05 1.2984979152679443 9.211798897013068e-07 -124.97348706906952 55.73599159798062 -38.56770715060876 0.0 0.0 7.951386703658792e-16 1.91982137026812 17.84303094443469 -16.971388293371 -0.45845015083859963 2.420244039074854 18.958238209862678 3.1805546814635168e-15 6.3611093629270335e-15 -7.951386703658794e-16 0.0 0.0 7.951386703658792e-16 0.5075281998643302 4.806944680183156 -8.278343810801692 7.123178247294711 -1.2042042045206073e-06 -1.985035411458198e-06 -3.1805546814635168e-15 -6.3611093629270335e-15 -1.7655625192200634e-31 -47.39978816793486 38.24469614531131 92.33023016206144 -60.44445878810154 -2.7309213811105553e-08 -9.431982544288092e-07 0.0 0.0 0.0 -3.1805546814635168e-15 -6.3611093629270335e-15 -1.7655625192200634e-31 119.80645031101413 25.33850910871028 69.64832622485137 -3.1805546814635168e-15 -6.3611093629270335e-15 -1.7655625192200634e-31 112.13809696985162 8.7489144102704 -107.06207428175242 76.83082333569358 2.4784061728458537e-06 -2.634867160763334e-06 3.578124016646456e-15 0.0 0.0 0.0 0.0 7.951386703658792e-16 2.3530560530676117 21.069618089538128 -30.06998981825484 7.394557060743659 -16.44638798938671 9.678238084200437 -3.1805546814635168e-15 6.361109362927033e-15 3.1805546814635168e-15
9.943184704752639e-05 1.2985204458236694 1.904012606246397e-05 172.99843392217565 75.58637558257065 23.387368478725875 -8.827812596100317e-32 -6.3611093629270335e-15 -1.5902773407317584e-15 -1.0285687206299394 16.83402527172246 -16.502287295232097 3.4986067044282008 -9.485900569213921 16.949975816416433 1.5902773407317582e-15 -4.4139062980501586e-32 -3.1805546814635164e-15 -8.827812596100317e-32 -6.3611093629270335e-15 -1.5902773407317584e-15 -1.6140019180861598 25.62867172985675 -16.86719695491735 27.150757578507193 3.7269428349018576e-07 -1.6023431720629222e-07 1.5902773407317588e-15 4.4139062980501586e-32 3.1805546814635176e-15 7.881264595751273 12.656888529649688 84.89451891086068 -100.66017100139925 2.7433012335507694e-06 -1.4897793874512138e-06 0.0 0.0 0.0 1.5902773407317588e-15 4.4139062980501586e-32 3.1805546814635176e-15 -0.2919489807043147 75.04550339492783 -90.98546330511104 1.5902773407317588e-15 4.4139062980501586e-32 3.1805546814635176e-15 -179.04349216264035 18.84044890164818 -110.98354155139174 99.28582405171571 -1.6590394206740082e-06 -8.673646360951127e-07 -1.5902773407317584e-15 1.5902773407317584e-15 2.2069531490250793e-32 -8.827812596100317e-32 -6.3611093629270335e-15 -1.5902773407317584e-15 -1.1239293659784622 18.664766376284014 -15.070117196411019 2.2197020695504763 -6.577970869134714 -12.68019694874657 -1.5902773407317584e-15 6.3611093629270335e-15 -7.951386703658791e-16
2.2110934878583066e-06 1.2984731197357178 -9.583509381627664e-06 -92.26581799809782 40.57063143790899 -58.00084907640444 6.3611093629270335e-15 -8.827812596100317e-32 -1.5902773407317584e-15 -0.4595089906712784 -1.0561898859163366 -36.529768833504455 -1.6934836022355997 7.926345735825386 20.085129495750063 6.361109362927033e-15 -6.361109362927033e-15 3.1805546814635168e-15 6.3611093629270335e-15 -8.827812596100317e-32 -1.5902773407317584e-15 -3.165517198134941 -6.854695004927372 -9.96050674518719 23.380204253742438 4.0163571437379316e-07 -2.3973182551059907e-06 0.0 0.0 0.0 -50.33915274494104 28.95463920785201 59.66256820798645 -63.73488814570399 2.5135077842239894e-06 -8.580781644352709e-07 0.0 0.0 6.3611093629270335e-15 0.0 0.0 0.0 51.33985801099878 11.62217690644211 14.85166174525846 0.0 0.0 0.0 94.38779562184419 -0.3491259027680578 -94.89486045466977 73.30794949667558 -3.3680174732523083e-07 3.9267914913466133e-07 1.5902773407317584e-15 0.0 0.0 6.3611093629270335e-15 -8.827812596100317e-32 -1.5902773407317584e-15 3.612253402336062 7.8120395321360405 -33.37078106573238 2.176972936233933 -14.561805125673239 14.844098652843604 0.0 0.0 0.0
